<svg width="802" height="129" viewBox="0 0 802 129" fill="none" xmlns="http://www.w3.org/2000/svg">
<path d="M600.123 35.344H622.475C632.155 35.344 639.723 38.16 645.355 43.704C650.811 49.336 653.539 56.992 653.539 66.672C653.539 76.44 650.811 84.096 645.355 89.64C639.723 95.272 632.155 98 622.475 98H600.123V35.344ZM609.539 89.728H622.387C629.251 89.728 634.443 87.792 638.139 83.744C641.835 79.784 643.683 74.064 643.683 66.672C643.683 59.28 641.835 53.648 638.139 49.6C634.443 45.64 629.251 43.616 622.387 43.616H609.539V89.728ZM698.423 92.544C694.199 96.944 688.831 99.056 682.143 99.056C675.455 99.056 669.999 96.944 665.863 92.544C661.639 88.232 659.615 82.512 659.615 75.296C659.615 68.08 661.639 62.36 665.863 57.96C669.911 53.736 675.367 51.536 682.143 51.536C688.831 51.536 694.287 53.736 698.423 57.96C702.471 62.272 704.583 68.08 704.583 75.296C704.583 82.512 702.471 88.32 698.423 92.544ZM682.143 91.488C686.191 91.488 689.447 90.08 691.823 87.176C694.199 84.36 695.431 80.4 695.431 75.296C695.431 70.28 694.199 66.32 691.823 63.416C689.447 60.6 686.191 59.104 682.143 59.104C678.007 59.104 674.751 60.6 672.375 63.416C669.911 66.32 668.767 70.28 668.767 75.296C668.767 80.4 669.911 84.36 672.375 87.176C674.751 90.08 678.007 91.488 682.143 91.488ZM731.881 99.056C725.369 99.056 720.177 96.944 716.217 92.544C712.169 88.232 710.233 82.512 710.233 75.296C710.233 68.08 712.169 62.36 716.217 57.96C720.089 53.736 725.369 51.536 731.881 51.536C737.425 51.536 742.001 53.12 745.609 56.112C749.217 59.192 751.417 63.328 752.121 68.432H743.145C742.529 65.44 741.209 63.152 739.185 61.568C737.161 59.984 734.697 59.192 731.881 59.192C728.009 59.192 725.017 60.6 722.729 63.416C720.441 66.232 719.385 70.192 719.385 75.296C719.385 80.488 720.441 84.448 722.729 87.264C725.017 90.08 728.009 91.4 731.881 91.4C734.785 91.4 737.249 90.608 739.361 88.936C741.385 87.352 742.705 84.976 743.233 81.808H752.209C751.505 87.088 749.305 91.312 745.609 94.392C741.913 97.56 737.337 99.056 731.881 99.056ZM775.903 99.144C763.231 99.144 756.631 93.952 756.015 83.568H764.815C765.167 86.736 766.135 89.024 767.895 90.256C769.567 91.576 772.295 92.192 775.991 92.192C782.679 92.192 786.023 90.08 786.023 85.856C786.023 84.096 785.319 82.688 783.911 81.632C782.503 80.664 779.951 79.872 776.343 79.168L771.679 78.288C761.999 76.528 757.247 72.04 757.247 64.736C757.247 60.688 758.743 57.52 761.911 55.144C764.991 52.768 769.303 51.536 774.759 51.536C787.255 51.536 793.591 56.64 793.943 66.76H785.407C785.231 63.768 784.263 61.568 782.591 60.336C780.831 59.104 778.279 58.4 774.759 58.4C771.943 58.4 769.743 58.928 768.247 59.984C766.663 61.04 765.959 62.536 765.959 64.472C765.959 66.232 766.575 67.64 767.983 68.608C769.303 69.576 771.415 70.368 774.407 70.896L779.159 71.688C784.703 72.744 788.751 74.328 791.215 76.44C793.679 78.552 794.911 81.544 794.911 85.24C794.911 89.64 793.239 93.072 789.895 95.536C786.551 98 781.887 99.144 775.903 99.144Z" fill="white"/>
<path d="M545.913 36.3792H563.666L539.018 61.4579L563.666 97.7403H546.43L528.763 71.1964L520.489 79.3837V97.7403H505.925V36.3792H520.489V62.923L545.913 36.3792Z" fill="white"/>
<path d="M495.276 82.4862L497.054 91.1043C497.054 91.1043 498.101 97.7403 500.797 97.7403H485.802C483.288 97.7403 482.317 91.0182 482.317 91.0182L480.712 84.1236C480.712 84.1236 479.764 78.4357 478.385 77.143C477.006 75.8502 474.765 75.1608 471.663 75.1608H459.77V97.7403H445.205V36.3792H474.248C481.401 36.3792 486.917 38.0166 490.709 41.2053C494.501 44.394 496.483 48.7031 496.483 54.1325C496.483 61.1994 493.122 66.1117 486.572 68.6972C489.675 69.7314 491.915 71.3688 493.122 73.4372C494.558 75.8982 495.276 82.4862 495.276 82.4862ZM459.77 48.0136V64.2157H472.611C475.369 64.2157 477.609 63.5263 479.161 62.1474C480.712 60.7685 481.487 58.7001 481.487 56.0285C481.487 50.6853 478.385 48.0136 472.352 48.0136H459.77Z" fill="white"/>
<path d="M405.276 99.119C395.882 99.119 388.298 96.1888 382.524 90.3285C376.663 84.4681 373.819 76.7118 373.819 67.0595C373.819 57.4933 376.663 49.737 382.524 43.7905C388.298 37.9302 395.882 35 405.276 35C414.583 35 422.167 37.9302 428.027 43.7905C433.802 49.737 436.732 57.4933 436.732 67.0595C436.732 76.7118 433.802 84.4681 428.027 90.3285C422.167 96.1888 414.583 99.119 405.276 99.119ZM393.469 81.2794C396.399 84.7267 400.277 86.4503 405.276 86.4503C410.102 86.4503 414.066 84.7267 417.169 81.2794C420.099 77.9183 421.65 73.1784 421.65 67.0595C421.65 61.0268 420.099 56.2868 417.169 52.8396C414.066 49.3923 410.102 47.6687 405.276 47.6687C400.277 47.6687 396.399 49.3923 393.469 52.8396C390.452 56.2868 388.987 61.0268 388.987 67.0595C388.987 73.1784 390.452 77.9183 393.469 81.2794Z" fill="white"/>
<path d="M266.527 59.8205V36.3792H281.091V97.7403H266.527V72.9201H241.879V97.7403H227.314V36.3792H241.879V59.8205H266.527Z" fill="white"/>
<path d="M189.72 99.119C180.585 99.119 173.174 96.275 167.572 90.4146C161.884 84.6405 159.126 76.8842 159.126 67.0595C159.126 57.2348 161.884 49.3923 167.399 43.6181C172.915 37.9302 180.327 35 189.72 35C197.304 35 203.682 37.0684 209.025 41.0327C214.368 45.1694 217.643 51.6169 218.764 59.0285H204.026C203.079 55.5812 201.355 52.3225 198.856 50.4265C196.356 48.5305 193.34 47.5825 189.72 47.5825C184.722 47.5825 180.93 49.3061 178.258 52.6672C175.587 56.1144 174.294 60.8544 174.294 67.0595C174.294 73.2645 175.587 78.0907 178.258 81.4518C180.93 84.899 184.722 86.5365 189.72 86.5365C193.512 86.5365 196.701 85.5023 199.373 83.2616C201.958 81.1071 203.682 77.4174 204.371 73.4531H218.936C217.988 81.3818 214.885 88.2601 209.542 92.5692C204.113 96.9644 197.477 99.119 189.72 99.119Z" fill="white"/>
<path d="M104.19 36.3792H156.503V49.3925H137.629V97.7403H122.978V49.3925H104.19V36.3792Z" fill="white"/>
<path d="M109.64 97.7403H94.2132L90.5936 87.0538H65.0839L61.5505 97.7403H46.6411L69.2206 36.3792H86.5431L109.64 97.7403ZM72.6679 64.3881L69.1345 74.9022H86.4569L82.9235 64.3881C81.8031 61.2856 80.0795 56.1147 77.7526 48.8755C74.6501 58.2692 73.0126 63.4401 72.6679 64.3881Z" fill="white"/>
<path d="M0 36.3792H27.9228C34.9896 36.3792 40.5053 38.2751 44.5558 41.9809C48.5201 45.6867 50.5885 50.6853 50.5885 57.0627C50.5885 63.4401 48.5201 68.5248 44.5558 72.2306C40.5053 75.9364 34.9896 77.7462 27.9228 77.7462H14.5647V97.7403H0V36.3792ZM14.5647 65.4223H26.9748C29.8188 65.4223 32.0595 64.7328 33.6107 63.2677C35.162 61.8888 36.0238 59.8205 36.0238 57.0627C36.0238 54.3911 35.162 52.3227 33.6107 50.8576C31.9733 49.4787 29.7326 48.7031 26.9748 48.7031H14.5647V65.4223Z" fill="white"/>
<path d="M306.889 83.6006H321.701V97.7398H306.889V83.6006Z" fill="white"/>
<path d="M336.513 83.6006H351.326V97.74H336.513V83.6006Z" fill="white"/>
<path d="M321.701 36.3036H336.513V83.6006H321.701V36.3036Z" fill="white"/>
<path d="M292.076 36.3036H306.889V97.7398L292.076 97.7398V36.3036Z" fill="white"/>
<path d="M351.326 36.3036H366.138V64.4136H351.326V36.3036Z" fill="white"/>
</svg>
